# xmcd CD database file
# Generated: Sam Aug 30 09:33:50 2003 by KSCD
# 
# Track frame offsets:
#       150
#       11785
#       35402
#       58777
#       85909
#       107713
#       130094
#
# Disc length: 2416 seconds
#
# Revision: 2
# Processed by: cddbd v1.4PL0 Copyright (c) Steve Scherf et al.
# Submitted via: Kscd 1.3.3
#
DISCID=56096e07
DTITLE=Jan Gerfast - Fuckin' Up The Blues
DYEAR=1900
DGENRE=
TTITLE0=Du Gamla Du Fria
TTITLE1=Fuckin' Up The Blues
TTITLE2=Waiting fFor The Sun To Rise
TTITLE3=Halleluja
TTITLE4=G-Town
TTITLE5=Magic Man
TTITLE6=No Guarantees
EXTD=
EXTT0=
EXTT1=
EXTT2=
EXTT3=
EXTT4=
EXTT5=
EXTT6=
PLAYORDER=
